<?xml version="1.0" encoding="utf-8"?>
<!-- Generator: Adobe Illustrator 18.0.0, SVG Export Plug-In . SVG Version: 6.00 Build 0)  -->
<!DOCTYPE svg PUBLIC "-//W3C//DTD SVG 1.1//EN" "http://www.w3.org/Graphics/SVG/1.1/DTD/svg11.dtd">
<svg version="1.1" id="Layer_1" xmlns="http://www.w3.org/2000/svg" xmlns:xlink="http://www.w3.org/1999/xlink" x="0px" y="0px"
	 viewBox="0 0 360.7 213.6" enable-background="new 0 0 360.7 213.6" xml:space="preserve">
<g>
	<path fill="#2F8EC4" d="M327,144.5l-76.9-42.1H110.6l-76.9,40.5V12.9c0-4.3,3.5-7.8,7.8-7.8h277.7c4.3,0,7.8,3.5,7.8,7.8V144.5z"/>
	<g>
		<polygon fill="#106580" points="353.3,208.5 232.2,123.8 128.5,123.8 7.4,208.5 5.1,205.2 127.3,119.8 233.4,119.8 355.6,205.2 		
			"/>
		<polygon fill="#106580" points="353.5,169.3 249.6,112.4 111.1,112.4 7.2,169.3 5.3,165.8 110.1,108.4 250.6,108.4 355.4,165.8 		
			"/>
		<rect x="12.1" y="162.3" fill="#106580" width="55" height="4"/>
		<rect x="39.6" y="147.7" fill="#106580" width="48.3" height="4"/>
		<rect x="65.1" y="133.1" fill="#106580" width="43.7" height="4"/>
		<rect x="90.6" y="119.8" fill="#106580" width="37.3" height="4"/>
		<rect x="12.2" y="183.7" fill="#106580" width="24.5" height="4"/>
		<rect x="293.7" y="162.3" fill="#106580" width="55" height="4"/>
		<rect x="272.8" y="147.7" fill="#106580" width="49.3" height="4"/>
		<rect x="251.9" y="133.1" fill="#106580" width="43.7" height="4"/>
		<rect x="232.9" y="119.8" fill="#106580" width="38.3" height="4"/>
		<rect x="324.2" y="183.7" fill="#106580" width="24.5" height="4"/>
		<polygon fill="#D45F58" points="28.5,199.9 130.1,128.8 230.6,128.8 332.2,199.9 		"/>
	</g>
	<path fill="#106580" d="M152.1,95.1h-23.2c-1.1,0-2-0.9-2-2s0.9-2,2-2h23.2c1.1,0,2,0.9,2,2S153.2,95.1,152.1,95.1z"/>
	<g>
		<path fill="#106580" d="M147.9,104.2c-0.3,0-0.7-0.1-1-0.3c-1-0.5-1.3-1.8-0.8-2.7l5.2-9.2c0.3-0.6,1-1,1.7-1
			c0.7,0,1.4,0.3,1.7,0.9l5.8,9c0.6,0.9,0.3,2.2-0.6,2.8c-0.9,0.6-2.2,0.3-2.8-0.6l-4-6.2l-3.5,6.3
			C149.2,103.9,148.6,104.2,147.9,104.2z"/>
		<path fill="#106580" d="M131.9,104.2c-0.3,0-0.7-0.1-1-0.3c-1-0.5-1.3-1.8-0.8-2.7l5.2-9.2c0.3-0.6,1-1,1.7-1
			c0.7,0,1.4,0.3,1.7,0.9l5.8,9c0.6,0.9,0.3,2.2-0.6,2.8c-0.9,0.6-2.2,0.3-2.8-0.6l-4-6.2l-3.5,6.3
			C133.3,103.9,132.6,104.2,131.9,104.2z"/>
		<path fill="#106580" d="M151.8,95.1c-0.8,0-1.6-0.5-1.9-1.3l-6-17.5h-12.7l5.6,16.2c0.4,1-0.2,2.2-1.2,2.5c-1,0.4-2.2-0.2-2.5-1.2
			l-7.4-21.5h21.2l7,20.2c0.4,1-0.2,2.2-1.2,2.5C152.2,95,152,95.1,151.8,95.1z"/>
		<path fill="#106580" d="M140.2,89c-0.1,0-0.2,0-0.2,0l-13.8-1.7c-1.1-0.1-1.9-1.1-1.7-2.2c0.1-1.1,1.1-1.9,2.2-1.7l13.8,1.7
			c1.1,0.1,1.9,1.1,1.7,2.2C142.1,88.2,141.2,89,140.2,89z"/>
		<path fill="#106580" d="M157.6,88.3c-0.1,0-0.2,0-0.2,0l-8.1-1c-1.1-0.1-1.9-1.1-1.7-2.2c0.1-1.1,1.1-1.9,2.2-1.7l8.1,1
			c1.1,0.1,1.9,1.1,1.7,2.2C159.5,87.6,158.6,88.3,157.6,88.3z"/>
	</g>
	<g>
		<g>
			<path fill="#FFFFFF" d="M51.7,25L51.7,25c0-3.7,2.8-6.8,6.8-6.8c2,0,3.3,0.5,4.4,1.3c0.3,0.2,0.6,0.6,0.6,1.1
				c0,0.8-0.6,1.4-1.4,1.4c-0.4,0-0.7-0.1-0.9-0.3c-0.8-0.6-1.6-0.9-2.7-0.9c-2.2,0-3.8,1.8-3.8,4.1v0c0,2.2,1.5,4.1,3.8,4.1
				c1.2,0,2-0.4,2.8-1c0.2-0.2,0.5-0.3,0.9-0.3c0.7,0,1.3,0.6,1.3,1.3c0,0.4-0.2,0.8-0.5,1c-1.2,1-2.5,1.6-4.6,1.6
				C54.6,31.7,51.7,28.8,51.7,25z"/>
			<path fill="#FFFFFF" d="M70.9,29.7l4.5-10.2c0.3-0.7,0.9-1.1,1.7-1.1h0.2c0.8,0,1.3,0.4,1.7,1.1l4.5,10.2
				c0.1,0.2,0.1,0.4,0.1,0.6c0,0.8-0.6,1.4-1.4,1.4c-0.7,0-1.1-0.4-1.4-1l-0.9-2h-5.7l-0.9,2.1c-0.2,0.6-0.7,0.9-1.3,0.9
				c-0.7,0-1.3-0.6-1.3-1.3C70.7,30.1,70.8,29.9,70.9,29.7z M78.9,26l-1.8-4.3L75.3,26H78.9z"/>
			<path fill="#FFFFFF" d="M91.4,19.8c0-0.8,0.6-1.4,1.4-1.4s1.4,0.6,1.4,1.4v9.1h5.3c0.7,0,1.3,0.6,1.3,1.3s-0.6,1.3-1.3,1.3h-6.7
				c-0.8,0-1.4-0.6-1.4-1.4V19.8z"/>
			<path fill="#FFFFFF" d="M108.6,19.8c0-0.8,0.6-1.4,1.4-1.4s1.4,0.6,1.4,1.4v10.4c0,0.8-0.6,1.4-1.4,1.4s-1.4-0.6-1.4-1.4V19.8z"
				/>
			<path fill="#FFFFFF" d="M120.3,19.9c0-0.8,0.6-1.4,1.4-1.4h7.3c0.7,0,1.3,0.6,1.3,1.3c0,0.7-0.6,1.3-1.3,1.3h-5.9v2.8h5
				c0.7,0,1.3,0.6,1.3,1.3s-0.6,1.3-1.3,1.3h-5v3.7c0,0.8-0.6,1.4-1.4,1.4s-1.4-0.6-1.4-1.4V19.9z"/>
			<path fill="#FFFFFF" d="M137.6,25L137.6,25c0-3.7,2.9-6.8,6.9-6.8s6.9,3,6.9,6.7v0c0,3.7-2.9,6.7-6.9,6.7S137.6,28.7,137.6,25z
				 M148.4,25L148.4,25c0-2.3-1.6-4.1-3.9-4.1s-3.9,1.8-3.9,4.1v0c0,2.2,1.6,4.1,3.9,4.1S148.4,27.3,148.4,25z"/>
			<path fill="#FFFFFF" d="M159.5,19.9c0-0.8,0.6-1.4,1.4-1.4h4.5c1.7,0,2.9,0.5,3.8,1.3c0.7,0.7,1.1,1.7,1.1,3v0c0,2-1,3.3-2.6,4
				l2,2.4c0.3,0.4,0.5,0.7,0.5,1.1c0,0.8-0.7,1.3-1.4,1.3c-0.7,0-1.1-0.3-1.4-0.7l-2.8-3.5h-2.3v2.8c0,0.8-0.6,1.4-1.4,1.4
				s-1.4-0.6-1.4-1.4V19.9z M165.3,24.8c1.4,0,2.2-0.7,2.2-1.8v0c0-1.2-0.9-1.9-2.3-1.9h-2.8v3.7H165.3z"/>
			<path fill="#FFFFFF" d="M178.6,19.8c0-0.8,0.6-1.4,1.4-1.4h0.3c0.7,0,1.1,0.3,1.5,0.8l5.5,7.3v-6.7c0-0.8,0.6-1.4,1.4-1.4
				c0.8,0,1.4,0.6,1.4,1.4v10.4c0,0.8-0.6,1.4-1.4,1.4h-0.1c-0.7,0-1.1-0.3-1.5-0.8l-5.7-7.5v7c0,0.8-0.6,1.4-1.4,1.4
				c-0.8,0-1.4-0.6-1.4-1.4V19.8z"/>
			<path fill="#FFFFFF" d="M199,19.8c0-0.8,0.6-1.4,1.4-1.4s1.4,0.6,1.4,1.4v10.4c0,0.8-0.6,1.4-1.4,1.4S199,31,199,30.2V19.8z"/>
			<path fill="#FFFFFF" d="M210.1,25L210.1,25c0-3.7,2.8-6.8,6.8-6.8c2,0,3.3,0.5,4.4,1.3c0.3,0.2,0.6,0.6,0.6,1.1
				c0,0.8-0.6,1.4-1.4,1.4c-0.4,0-0.7-0.1-0.9-0.3c-0.8-0.6-1.6-0.9-2.7-0.9c-2.2,0-3.8,1.8-3.8,4.1v0c0,2.2,1.5,4.1,3.8,4.1
				c1.2,0,2-0.4,2.8-1c0.2-0.2,0.5-0.3,0.9-0.3c0.7,0,1.3,0.6,1.3,1.3c0,0.4-0.2,0.8-0.5,1c-1.2,1-2.5,1.6-4.6,1.6
				C212.9,31.7,210.1,28.8,210.1,25z"/>
			<path fill="#FFFFFF" d="M229.2,29.7l4.5-10.2c0.3-0.7,0.9-1.1,1.7-1.1h0.2c0.8,0,1.3,0.4,1.7,1.1l4.5,10.2
				c0.1,0.2,0.1,0.4,0.1,0.6c0,0.8-0.6,1.4-1.4,1.4c-0.7,0-1.1-0.4-1.4-1l-0.9-2h-5.7l-0.9,2.1c-0.2,0.6-0.7,0.9-1.3,0.9
				c-0.7,0-1.3-0.6-1.3-1.3C229.1,30.1,229.1,29.9,229.2,29.7z M237.3,26l-1.8-4.3l-1.8,4.3H237.3z"/>
			<path fill="#FFFFFF" d="M251.4,21.1h-2.8c-0.7,0-1.3-0.6-1.3-1.3c0-0.7,0.6-1.3,1.3-1.3h8.4c0.7,0,1.3,0.6,1.3,1.3
				c0,0.7-0.6,1.3-1.3,1.3h-2.8v9.1c0,0.8-0.6,1.4-1.4,1.4s-1.4-0.6-1.4-1.4V21.1z"/>
			<path fill="#FFFFFF" d="M266.2,19.8c0-0.8,0.6-1.4,1.4-1.4s1.4,0.6,1.4,1.4v10.4c0,0.8-0.6,1.4-1.4,1.4s-1.4-0.6-1.4-1.4V19.8z"
				/>
			<path fill="#FFFFFF" d="M277.3,25L277.3,25c0-3.7,2.9-6.8,6.9-6.8s6.9,3,6.9,6.7v0c0,3.7-2.9,6.7-6.9,6.7S277.3,28.7,277.3,25z
				 M288.1,25L288.1,25c0-2.3-1.6-4.1-3.9-4.1s-3.9,1.8-3.9,4.1v0c0,2.2,1.6,4.1,3.9,4.1S288.1,27.3,288.1,25z"/>
			<path fill="#FFFFFF" d="M299.3,19.8c0-0.8,0.6-1.4,1.4-1.4h0.3c0.7,0,1.1,0.3,1.5,0.8l5.5,7.3v-6.7c0-0.8,0.6-1.4,1.4-1.4
				s1.4,0.6,1.4,1.4v10.4c0,0.8-0.6,1.4-1.4,1.4h-0.1c-0.7,0-1.1-0.3-1.5-0.8l-5.7-7.5v7c0,0.8-0.6,1.4-1.4,1.4
				c-0.8,0-1.4-0.6-1.4-1.4V19.8z"/>
		</g>
	</g>
	<rect x="162.9" y="83.3" fill="#FFFFFF" width="89.1" height="4"/>
	<rect x="178.4" y="86.2" fill="#FFFFFF" width="4" height="12.9"/>
	<rect x="208.1" y="86.2" fill="#FFFFFF" width="4" height="12.9"/>
	<rect x="237.9" y="86.2" fill="#FFFFFF" width="4" height="12.9"/>
	<rect x="109.3" y="83.3" fill="#FFFFFF" width="11.8" height="4"/>
	<rect x="112.1" y="85.8" fill="#FFFFFF" width="4" height="13.2"/>
	<path fill="#FFFFFF" d="M250.1,186.1c-3.8,0-5.7-0.5-7.5-1.1c-1.7-0.5-3.2-0.9-6.4-0.9c-3.2,0-4.8,0.4-6.4,0.9
		c-1.8,0.5-3.8,1.1-7.5,1.1c-3.8,0-5.7-0.5-7.5-1.1c-1.7-0.5-3.2-0.9-6.4-0.9c-3.2,0-4.8,0.4-6.4,0.9c-1.8,0.5-3.8,1.1-7.5,1.1
		c-3.8,0-5.7-0.5-7.5-1.1c-1.7-0.5-3.2-0.9-6.4-0.9c-1.1,0-2-0.9-2-2s0.9-2,2-2c3.8,0,5.7,0.5,7.5,1.1c1.7,0.5,3.2,0.9,6.4,0.9
		c3.2,0,4.8-0.4,6.4-0.9c1.8-0.5,3.8-1.1,7.5-1.1c3.8,0,5.7,0.5,7.5,1.1c1.7,0.5,3.2,0.9,6.4,0.9c3.2,0,4.8-0.4,6.4-0.9
		c1.8-0.5,3.8-1.1,7.5-1.1s5.7,0.5,7.5,1.1c1.7,0.5,3.2,0.9,6.4,0.9c1.1,0,2,0.9,2,2S251.2,186.1,250.1,186.1z"/>
	<path fill="#FFFFFF" d="M186.7,165.3c-3.8,0-5.7-0.5-7.5-1.1c-1.7-0.5-3.2-0.9-6.4-0.9s-4.8,0.4-6.4,0.9c-1.8,0.5-3.8,1.1-7.5,1.1
		c-3.8,0-5.7-0.5-7.5-1.1c-1.7-0.5-3.2-0.9-6.4-0.9c-3.2,0-4.8,0.4-6.4,0.9c-1.8,0.5-3.8,1.1-7.5,1.1c-3.8,0-5.7-0.5-7.5-1.1
		c-1.7-0.5-3.2-0.9-6.4-0.9c-1.1,0-2-0.9-2-2s0.9-2,2-2c3.8,0,5.7,0.5,7.5,1.1c1.7,0.5,3.2,0.9,6.4,0.9c3.2,0,4.8-0.4,6.4-0.9
		c1.8-0.5,3.8-1.1,7.5-1.1c3.8,0,5.7,0.5,7.5,1.1c1.7,0.5,3.2,0.9,6.4,0.9c3.2,0,4.8-0.4,6.4-0.9c1.8-0.5,3.8-1.1,7.5-1.1
		s5.7,0.5,7.5,1.1c1.7,0.5,3.2,0.9,6.4,0.9c1.1,0,2,0.9,2,2S187.8,165.3,186.7,165.3z"/>
	<path fill="#FFFFFF" d="M226.1,147.5c-2.6,0-4-0.7-5.1-1.2c-1-0.5-1.7-0.8-3.4-0.8s-2.5,0.4-3.4,0.8c-1.1,0.5-2.5,1.2-5.1,1.2
		c-2.6,0-4-0.7-5.1-1.2c-1-0.5-1.7-0.8-3.4-0.8c-1.7,0-2.5,0.4-3.4,0.8c-1.1,0.5-2.5,1.2-5.1,1.2c-2.6,0-4-0.7-5.1-1.2
		c-1-0.5-1.7-0.8-3.4-0.8c-1.1,0-2-0.9-2-2s0.9-2,2-2c2.6,0,4,0.7,5.1,1.2c1,0.5,1.7,0.8,3.4,0.8c1.7,0,2.5-0.4,3.4-0.8
		c1.1-0.5,2.5-1.2,5.1-1.2c2.6,0,4,0.7,5.1,1.2c1,0.5,1.7,0.8,3.4,0.8c1.7,0,2.5-0.4,3.4-0.8c1.1-0.5,2.5-1.2,5.1-1.2s4,0.7,5.1,1.2
		c1,0.5,1.7,0.8,3.4,0.8c1.1,0,2,0.9,2,2S227.2,147.5,226.1,147.5z"/>
</g>
</svg>
