<?xml version="1.0" encoding="utf-8"?>
<!-- Generator: Adobe Illustrator 18.0.0, SVG Export Plug-In . SVG Version: 6.00 Build 0)  -->
<!DOCTYPE svg PUBLIC "-//W3C//DTD SVG 1.1//EN" "http://www.w3.org/Graphics/SVG/1.1/DTD/svg11.dtd">
<svg version="1.1" id="Layer_1" xmlns="http://www.w3.org/2000/svg" xmlns:xlink="http://www.w3.org/1999/xlink" x="0px" y="0px"
	 viewBox="0 0 164 167" enable-background="new 0 0 164 167" xml:space="preserve">
<g>
	<path fill="#106580" d="M44.7,73.6c-16.8,0-30.5-13.7-30.5-30.5s13.7-30.5,30.5-30.5S75.2,26.2,75.2,43S61.5,73.6,44.7,73.6z
		 M44.7,16.5c-14.6,0-26.5,11.9-26.5,26.5s11.9,26.5,26.5,26.5S71.2,57.7,71.2,43S59.3,16.5,44.7,16.5z"/>
	<path fill="#106580" d="M56.4,87.8H33V70.4c0-1.1,0.9-2,2-2s2,0.9,2,2v13.4h15.4V70.4c0-1.1,0.9-2,2-2s2,0.9,2,2V87.8z"/>
	<polygon fill="#106580" points="137.7,152.4 133.7,152.4 133.7,87.8 32.8,87.8 32.8,152.4 28.8,152.4 28.8,83.8 137.7,83.8 	"/>
	<rect x="37.8" y="92.8" fill="#28BFAD" width="91" height="59.6"/>
	<g>
		<rect x="43.2" y="79.3" fill="#FFFFFF" width="80.2" height="50.6"/>
		<path fill="#106580" d="M125.3,131.9H41.2V77.3h84.2V131.9z M45.2,127.9h76.2V81.3H45.2V127.9z"/>
	</g>
	<g>
		<g>
			<path fill="#D45F58" d="M62.5,100.4c0,0,4.5,15.2,20.8,15.2s20.8-15.2,20.8-15.2H62.5z"/>
			<path fill="#106580" d="M83.3,117.7c-17.5,0-22.6-16.5-22.7-16.7c-0.2-0.6-0.1-1.3,0.3-1.8c0.4-0.5,1-0.8,1.6-0.8H104
				c0.6,0,1.2,0.3,1.6,0.8c0.4,0.5,0.5,1.2,0.3,1.8C105.9,101.2,100.8,117.7,83.3,117.7z M65.5,102.4c2,4,7.1,11.2,17.8,11.2
				c10.6,0,15.7-7.2,17.8-11.2H65.5z"/>
		</g>
		<g>
			<path fill="#D45F58" d="M107.5,98.7l-13.2-6.6c-1.3-0.6-2.8-0.4-3.9,0.5l-4.8,4.1c-1.3,1.1-3.3,1.1-4.6,0l-4.8-4.1
				c-1.1-0.9-2.6-1.1-3.9-0.5l-13.2,6.6C59.1,98.7,82,113.1,107.5,98.7z"/>
			<path fill="#106580" d="M83.6,107.1C83.6,107.1,83.6,107.1,83.6,107.1c-14.8,0-25.2-6.4-25.6-6.7c-0.6-0.4-1-1.1-0.9-1.8
				c0-0.7,0.5-1.4,1.1-1.7l13.2-6.6c2-1,4.4-0.7,6.1,0.8l4.8,4.1c0.6,0.5,1.5,0.5,2,0l4.8-4.1c1.7-1.4,4.1-1.7,6.1-0.7l13.2,6.6
				c0.7,0.3,1.1,1,1.1,1.7s-0.4,1.4-1,1.8C100.7,104.8,92.3,107.1,83.6,107.1z M63.5,98.7c4,1.8,11.3,4.4,20.1,4.4c0,0,0,0,0,0
				c6.7,0,13.3-1.5,19.4-4.4l-9.7-4.8c-0.6-0.3-1.2-0.2-1.7,0.2l-4.8,4.1c-2,1.7-5.2,1.7-7.2,0l-4.8-4.1c-0.5-0.4-1.2-0.5-1.7-0.2
				L63.5,98.7z"/>
		</g>
	</g>
	<path fill="#106580" d="M44.4,46.8c-0.5,0-0.9-0.2-1.3-0.5L31.3,35.9c-0.8-0.7-0.9-2-0.2-2.8c0.7-0.8,2-0.9,2.8-0.2l11.8,10.4
		c0.8,0.7,0.9,2,0.2,2.8C45.5,46.6,44.9,46.8,44.4,46.8z"/>
	<path fill="#106580" d="M41.3,64.1c-0.1,0-0.1,0-0.2,0c0,0,0,0,0,0c-0.8-0.1-1.3-0.9-1.2-1.6c0.1-0.8,0.8-1.3,1.6-1.2
		c0.8,0.1,1.3,0.8,1.2,1.6C42.5,63.7,41.9,64.1,41.3,64.1z M48.2,64.1c-0.6,0-1.1-0.4-1.3-1c-0.2-0.7,0.2-1.5,0.9-1.8
		c0.1,0,0.2,0,0.3-0.1c0.8-0.1,1.5,0.4,1.6,1.2c0.1,0.7-0.4,1.4-1.1,1.6C48.4,64.1,48.3,64.1,48.2,64.1z M34.7,61.8
		c-0.2,0-0.4,0-0.6-0.1c-0.1,0-0.1-0.1-0.2-0.1c-0.6-0.4-0.8-1.3-0.4-1.9c0.4-0.6,1.2-0.8,1.9-0.4c0.7,0.4,0.9,1.2,0.6,1.9
		C35.7,61.5,35.3,61.8,34.7,61.8z M54.7,61.8c-0.5,0-0.9-0.2-1.2-0.6c-0.4-0.6-0.3-1.5,0.4-1.9c0,0,0.1-0.1,0.2-0.1
		c0.7-0.3,1.5-0.1,1.9,0.6c0.3,0.7,0.1,1.5-0.6,1.9C55.2,61.7,55,61.8,54.7,61.8z M60,57.3c-0.3,0-0.6-0.1-0.9-0.3
		c-0.6-0.5-0.7-1.4-0.2-2c0.5-0.6,1.4-0.7,2-0.2c0.6,0.5,0.7,1.4,0.2,2c0,0,0,0,0,0C60.8,57.1,60.4,57.3,60,57.3z M28.3,56.8
		c-0.5-0.6-0.4-1.5,0.2-2c0.6-0.5,1.5-0.4,2,0.2L28.3,56.8z M25.9,51.3c-0.6,0-1.1-0.4-1.3-0.9c-0.3-0.7,0.1-1.5,0.8-1.8
		c0.7-0.3,1.5,0,1.8,0.7c0,0,0,0.1,0,0.1c0.2,0.7-0.2,1.5-0.9,1.8C26.2,51.3,26.1,51.3,25.9,51.3z M63.5,51.3c-0.2,0-0.4,0-0.6-0.1
		c-0.7-0.3-1-1.1-0.8-1.8c0.3-0.7,1-1.1,1.8-0.8c0.7,0.2,1.1,1,0.9,1.8c0,0,0,0.1,0,0.1C64.6,51,64.1,51.3,63.5,51.3z M24.7,44.5
		c-0.8,0-1.4-0.6-1.4-1.4v0c0-0.8,0.6-1.4,1.4-1.4s1.4,0.6,1.4,1.4S25.5,44.5,24.7,44.5z M64.7,44.5c-0.8,0-1.4-0.6-1.4-1.4
		c0,0,0,0,0,0c0,0,0,0,0,0c0-0.8,0.6-1.4,1.4-1.4s1.4,0.6,1.4,1.4v0c0,0,0,0,0,0c0,0,0,0,0,0v0C66.1,43.8,65.5,44.5,64.7,44.5z
		 M25.9,37.6c-0.1,0-0.3,0-0.4-0.1c-0.7-0.2-1.1-1-0.9-1.8c0,0,0-0.1,0-0.1c0.3-0.7,1.1-1,1.8-0.7c0.7,0.3,1,1.1,0.8,1.8
		C27,37.3,26.5,37.6,25.9,37.6z M63.5,37.5c-0.5,0-1.1-0.3-1.3-0.9c0,0,0-0.1,0-0.1c-0.2-0.7,0.2-1.5,0.9-1.8
		c0.7-0.2,1.5,0.1,1.8,0.8c0.3,0.7-0.1,1.5-0.8,1.8C63.9,37.5,63.7,37.5,63.5,37.5z M29.4,31.6c-0.3,0-0.6-0.1-0.9-0.3
		c-0.6-0.5-0.7-1.4-0.2-2c0,0,0,0,0,0c0.5-0.6,1.4-0.7,2-0.2c0.6,0.5,0.7,1.4,0.2,2C30.2,31.4,29.8,31.6,29.4,31.6z M61.1,29.2
		c0.5,0.6,0.4,1.5-0.2,2c-0.3,0.2-0.6,0.3-0.9,0.3c-0.4,0-0.8-0.2-1.1-0.5 M34.7,27.1c-0.5,0-1-0.3-1.3-0.8
		c-0.3-0.7-0.1-1.5,0.6-1.9c0.6-0.4,1.4-0.2,1.9,0.4c0.4,0.6,0.3,1.5-0.4,1.9c0,0-0.1,0.1-0.2,0.1C35.1,27.1,34.9,27.1,34.7,27.1z
		 M54.7,27.1c-0.2,0-0.5-0.1-0.7-0.2c-0.7-0.4-0.9-1.2-0.6-1.9c0.3-0.7,1.2-1,1.9-0.6c0.1,0,0.1,0.1,0.2,0.1
		c0.6,0.4,0.8,1.3,0.4,1.9C55.6,26.9,55.1,27.1,54.7,27.1z M41.2,24.8c-0.7,0-1.3-0.5-1.4-1.2c-0.1-0.7,0.4-1.4,1.1-1.6
		c0.7-0.1,1.4,0.2,1.6,0.9c0.2,0.7-0.2,1.5-0.9,1.8c-0.1,0-0.2,0-0.3,0.1C41.3,24.8,41.3,24.8,41.2,24.8z M48.1,24.7
		c-0.1,0-0.2,0-0.2,0c-0.8-0.1-1.3-0.8-1.2-1.6c0.1-0.8,0.8-1.3,1.6-1.2c0,0,0,0,0,0c0.8,0.1,1.3,0.9,1.2,1.6
		C49.4,24.3,48.8,24.7,48.1,24.7z"/>
	<path fill="#106580" d="M60.1,31.6c-0.5,0-1.1-0.3-1.3-0.9c0,0,0-0.1,0-0.1c-0.2-0.7,0.2-1.5,0.9-1.8c0.7-0.2,1.5,0.1,1.8,0.8
		c0.3,0.7-0.1,1.5-0.8,1.8C60.4,31.5,60.2,31.6,60.1,31.6z"/>
	<path fill="#106580" d="M29.4,57.3c-0.5,0-1.1-0.3-1.3-0.9c0,0,0-0.1,0-0.1c-0.2-0.7,0.2-1.5,0.9-1.8c0.7-0.2,1.5,0.1,1.8,0.8
		c0.3,0.7-0.1,1.5-0.8,1.8C29.8,57.3,29.6,57.3,29.4,57.3z"/>
</g>
</svg>
