<?xml version="1.0" encoding="utf-8"?>
<!-- Generator: Adobe Illustrator 18.0.0, SVG Export Plug-In . SVG Version: 6.00 Build 0)  -->
<!DOCTYPE svg PUBLIC "-//W3C//DTD SVG 1.1//EN" "http://www.w3.org/Graphics/SVG/1.1/DTD/svg11.dtd">
<svg version="1.1" id="Layer_1" xmlns="http://www.w3.org/2000/svg" xmlns:xlink="http://www.w3.org/1999/xlink" x="0px" y="0px"
	 viewBox="0 0 100 130" enable-background="new 0 0 100 130" xml:space="preserve">
<g>
	<g>
		<g>
			<g>
				<path fill="#106580" d="M41.8,55.7c-2.6,0-5.1-1-6.9-2.9c-3.8-3.8-3.8-10,0-13.8c1.8-1.8,4.3-2.9,6.9-2.9s5.1,1,6.9,2.9
					c1.8,1.8,2.9,4.3,2.9,6.9c0,2.6-1,5.1-2.9,6.9C46.8,54.7,44.4,55.7,41.8,55.7z M41.8,40.2c-1.5,0-3,0.6-4.1,1.7
					c-2.2,2.2-2.2,5.9,0,8.1c1.1,1.1,2.5,1.7,4.1,1.7s3-0.6,4.1-1.7c1.1-1.1,1.7-2.5,1.7-4.1c0-1.5-0.6-3-1.7-4.1
					C44.8,40.8,43.3,40.2,41.8,40.2z"/>
				<g>
					
						<rect x="31.3" y="47.7" transform="matrix(0.7071 0.7071 -0.7071 0.7071 45.8423 -13.3513)" fill="#106580" width="15.5" height="2"/>
					
						<rect x="34" y="44.9" transform="matrix(0.7071 0.7071 -0.7071 0.7071 44.7082 -16.0923)" fill="#106580" width="15.5" height="2"/>
					
						<rect x="36.8" y="42.2" transform="matrix(0.7071 0.7071 -0.7071 0.7071 43.5715 -18.8335)" fill="#106580" width="15.5" height="2"/>
				</g>
				<g>
					
						<rect x="38" y="35.4" transform="matrix(0.7071 0.7071 -0.7071 0.7071 41.9658 -14.957)" fill="#106580" width="2" height="15.5"/>
					
						<rect x="40.8" y="38.2" transform="matrix(0.7071 0.7071 -0.7071 0.7071 44.7068 -16.0923)" fill="#106580" width="2" height="15.5"/>
					
						<rect x="43.5" y="40.9" transform="matrix(0.7071 0.7071 -0.7071 0.7071 47.448 -17.2278)" fill="#106580" width="2" height="15.5"/>
				</g>
			</g>
			<g>
				<path fill="#106580" d="M58.2,55.7c-2.6,0-5.1-1-6.9-2.9c-3.8-3.8-3.8-10,0-13.8c1.8-1.8,4.3-2.9,6.9-2.9c2.6,0,5.1,1,6.9,2.9
					c3.8,3.8,3.8,10,0,13.8C63.3,54.7,60.8,55.7,58.2,55.7z M58.2,40.2c-1.5,0-3,0.6-4.1,1.7c-2.2,2.2-2.2,5.9,0,8.1
					c1.1,1.1,2.5,1.7,4.1,1.7c1.5,0,3-0.6,4.1-1.7c2.2-2.2,2.2-5.9,0-8.1C61.2,40.8,59.8,40.2,58.2,40.2z"/>
				<g>
					
						<rect x="47.7" y="47.7" transform="matrix(0.7071 0.7071 -0.7071 0.7071 50.6597 -24.9778)" fill="#106580" width="15.5" height="2"/>
					
						<rect x="50.5" y="44.9" transform="matrix(0.7071 0.7071 -0.7071 0.7071 49.5243 -27.7191)" fill="#106580" width="15.5" height="2"/>
					
						<rect x="53.2" y="42.2" transform="matrix(0.7071 0.7071 -0.7071 0.7071 48.3874 -30.46)" fill="#106580" width="15.5" height="2"/>
				</g>
				<g>
					
						<rect x="54.5" y="35.4" transform="matrix(0.7071 0.7071 -0.7071 0.7071 46.7816 -26.5833)" fill="#106580" width="2" height="15.5"/>
					
						<rect x="57.2" y="38.2" transform="matrix(0.7071 0.7071 -0.7071 0.7071 49.5226 -27.7189)" fill="#106580" width="2" height="15.5"/>
					
						<rect x="60" y="40.9" transform="matrix(0.7071 0.7071 -0.7071 0.7071 52.2638 -28.8543)" fill="#106580" width="2" height="15.5"/>
				</g>
			</g>
		</g>
		<g>
			<path fill="#106580" d="M16.6,119.4c-2.5,0-4.1-0.2-4.2-0.2l-1.7-0.2v-1.7c0-10.8,5-22.9,14.4-34.8c7-8.9,14-14.6,14.2-14.9
				l2.5,3.1c-0.3,0.2-25.8,21.4-27.1,44.8c4.6,0.2,17-0.1,23.4-9.7l9.9-34.3l3.8,1.1l-10.1,34.9l-0.2,0.2
				c-3.8,5.9-10.1,9.8-18.2,11.2C20.9,119.3,18.5,119.4,16.6,119.4z"/>
			<path fill="#106580" d="M83.4,119.4c-1.9,0-4.3-0.1-6.8-0.6c-8.1-1.4-14.4-5.3-18.2-11.2l-0.2-0.2L48.1,72.4l3.8-1.1l9.9,34.3
				c6.4,9.5,18.8,9.9,23.4,9.7C83.9,92,58.4,70.8,58.1,70.6l2.5-3.1c0.3,0.2,7.2,5.9,14.2,14.9c9.4,12,14.4,24,14.4,34.8v1.7
				l-1.7,0.2C87.4,119.2,85.8,119.4,83.4,119.4z"/>
		</g>
		<path fill="#106580" d="M61.8,105.6L50,63.1l-11.8,42.5l-3.5,4.5v0.7c0,8.4,6.9,15.3,15.3,15.3s15.3-6.9,15.3-15.3v-0.7
			L61.8,105.6z"/>
		<g>
			<path fill="#106580" d="M32.3,79.1c-0.5,0-1-0.2-1.4-0.6L20,67.7l-2.4-17.8c-0.1-1.1,0.6-2.1,1.7-2.3c1.1-0.2,2.1,0.6,2.3,1.7
				l2.2,16.4l9.9,9.9c0.8,0.8,0.8,2,0,2.8C33.3,78.9,32.8,79.1,32.3,79.1z"/>
			<path fill="#106580" d="M16.5,102.4c-0.9,0-1.8-0.7-2-1.6l-4.2-20.2l17.8-1c1.1-0.1,2,0.8,2.1,1.9c0.1,1.1-0.8,2-1.9,2.1
				l-13.2,0.7l3.2,15.7c0.2,1.1-0.5,2.1-1.6,2.4C16.7,102.4,16.6,102.4,16.5,102.4z"/>
			<g>
				<path fill="#106580" d="M67.7,79.1c-0.5,0-1-0.2-1.4-0.6c-0.8-0.8-0.8-2,0-2.8l9.9-9.9l2.2-16.4c0.1-1.1,1.2-1.9,2.3-1.7
					c1.1,0.1,1.9,1.2,1.7,2.3L80,67.7L69.1,78.5C68.8,78.9,68.2,79.1,67.7,79.1z"/>
				<path fill="#106580" d="M83.5,102.4c-0.1,0-0.3,0-0.4,0c-1.1-0.2-1.8-1.3-1.6-2.4l3.2-15.7l-13.2-0.7c-1.1-0.1-1.9-1-1.9-2.1
					s1-1.9,2.1-1.9l17.8,1l-4.2,20.2C85.3,101.8,84.5,102.4,83.5,102.4z"/>
			</g>
		</g>
		<g>
			<path fill="#FFFFFF" d="M32.3,54.1c0,9.8,7.9,17.7,17.7,17.7s17.7-7.9,17.7-17.7H32.3z"/>
			<path fill="#106580" d="M50,73.9c-10.9,0-19.7-8.9-19.7-19.7v-2h39.5v2C69.7,65,60.9,73.9,50,73.9z M34.4,56.1
				c1,7.7,7.6,13.7,15.6,13.7c8,0,14.6-6,15.6-13.7H34.4z"/>
		</g>
	</g>
	<g>
		<path fill="#D45F58" d="M27.4,4c-6.6,0-12,5.4-12,12c0,6.6,5.4,12,12,12h22.1V4H27.4z"/>
		<path fill="#106580" d="M73.1,27.6H52V4.5h21.1c6.4,0,11.6,5.2,11.6,11.6S79.4,27.6,73.1,27.6z M56,23.6h17.1
			c4.2,0,7.6-3.4,7.6-7.6s-3.4-7.6-7.6-7.6H56V23.6z"/>
	</g>
</g>
</svg>
