<?xml version="1.0" encoding="utf-8"?>
<!-- Generator: Adobe Illustrator 18.0.0, SVG Export Plug-In . SVG Version: 6.00 Build 0)  -->
<!DOCTYPE svg PUBLIC "-//W3C//DTD SVG 1.1//EN" "http://www.w3.org/Graphics/SVG/1.1/DTD/svg11.dtd">
<svg version="1.1" id="Layer_1" xmlns="http://www.w3.org/2000/svg" xmlns:xlink="http://www.w3.org/1999/xlink" x="0px" y="0px"
	 viewBox="0 0 170 170" enable-background="new 0 0 170 170" xml:space="preserve">
<g>
	<polygon fill="#D45F58" points="128.7,73.4 112.9,73.4 124,62.3 107.7,46 96.6,57.1 96.6,41.3 73.4,41.3 73.4,57.1 62.3,46 
		46,62.3 57.1,73.4 41.3,73.4 41.3,96.6 57.1,96.6 46,107.7 62.3,124 73.4,112.9 73.4,128.7 96.6,128.7 96.6,112.9 107.7,124 
		124,107.7 112.9,96.6 128.7,96.6 	"/>
	<path fill="#106580" d="M85,149.7c-35.7,0-64.7-29-64.7-64.7c0-35.7,29-64.7,64.7-64.7c35.7,0,64.7,29,64.7,64.7
		C149.7,120.7,120.7,149.7,85,149.7z M85,25.3c-32.9,0-59.7,26.8-59.7,59.7c0,32.9,26.8,59.7,59.7,59.7c32.9,0,59.7-26.8,59.7-59.7
		C144.7,52.1,117.9,25.3,85,25.3z"/>
	<path fill="#106580" d="M85,161c-0.5,0-1,0-1.6,0c-1,0-1.8-0.9-1.8-1.9c0-1,0.8-1.8,1.9-1.8c0,0,0,0,0,0c2,0,4.1,0,6.1-0.1
		c1-0.1,1.9,0.7,2,1.7s-0.7,1.9-1.7,2C88.2,160.9,86.6,161,85,161z M71.2,159.7c-0.1,0-0.2,0-0.3,0c-2.1-0.4-4.2-0.9-6.2-1.4
		c-1-0.3-1.6-1.3-1.3-2.3c0.3-1,1.3-1.6,2.3-1.3c1.9,0.5,3.9,1,5.9,1.4c1,0.2,1.7,1.2,1.5,2.2C72.8,159.1,72,159.7,71.2,159.7z
		 M102,159c-0.8,0-1.6-0.6-1.8-1.4c-0.2-1,0.4-2,1.4-2.2c2-0.5,3.9-1,5.8-1.6c1-0.3,2,0.2,2.3,1.2c0.3,1-0.2,2-1.2,2.3
		c-2,0.7-4.1,1.2-6.1,1.7C102.2,159,102.1,159,102,159z M53.5,154c-0.3,0-0.5-0.1-0.8-0.2c-1.9-0.9-3.8-1.9-5.6-3
		c-0.9-0.5-1.2-1.6-0.7-2.5c0.5-0.9,1.6-1.2,2.5-0.7c1.7,1,3.5,2,5.4,2.8c0.9,0.4,1.3,1.5,0.9,2.5C54.8,153.6,54.2,154,53.5,154z
		 M119.4,152.6c-0.7,0-1.3-0.4-1.6-1c-0.5-0.9-0.1-2,0.8-2.5c1.8-0.9,3.5-2,5.2-3c0.9-0.6,2-0.3,2.6,0.6c0.5,0.9,0.3,2-0.6,2.6
		c-1.8,1.1-3.6,2.2-5.5,3.2C120,152.5,119.7,152.6,119.4,152.6z M37.8,144c-0.4,0-0.8-0.1-1.2-0.4c-1.6-1.3-3.2-2.8-4.7-4.3
		c-0.7-0.7-0.7-1.9,0-2.6c0.7-0.7,1.9-0.7,2.6,0c1.4,1.4,3,2.8,4.5,4c0.8,0.7,0.9,1.8,0.2,2.6C38.8,143.8,38.3,144,37.8,144z
		 M134.6,141.9c-0.5,0-1-0.2-1.4-0.6c-0.7-0.8-0.6-1.9,0.1-2.6c1.5-1.4,3-2.8,4.3-4.2c0.7-0.7,1.9-0.8,2.6-0.1
		c0.7,0.7,0.8,1.9,0.1,2.6c-1.4,1.5-3,3-4.5,4.5C135.5,141.8,135.1,141.9,134.6,141.9z M25.1,130.5c-0.6,0-1.1-0.3-1.5-0.8
		c-1.2-1.7-2.4-3.5-3.5-5.3c-0.5-0.9-0.3-2,0.6-2.5c0.9-0.5,2-0.3,2.5,0.6c1,1.7,2.2,3.4,3.4,5c0.6,0.8,0.4,2-0.4,2.6
		C25.8,130.4,25.4,130.5,25.1,130.5z M146.8,127.9c-0.4,0-0.7-0.1-1-0.3c-0.9-0.6-1.1-1.7-0.5-2.6c1.1-1.7,2.2-3.4,3.1-5.2
		c0.5-0.9,1.6-1.2,2.5-0.7c0.9,0.5,1.2,1.6,0.7,2.5c-1,1.8-2.1,3.7-3.3,5.4C148,127.6,147.4,127.9,146.8,127.9z M16.1,114.2
		c-0.7,0-1.4-0.4-1.7-1.2c-0.8-2-1.5-4-2.1-6c-0.3-1,0.3-2,1.2-2.3c1-0.3,2,0.3,2.3,1.2c0.6,1.9,1.3,3.8,2,5.7c0.4,1-0.1,2-1,2.4
		C16.5,114.2,16.3,114.2,16.1,114.2z M155,111.2c-0.2,0-0.4,0-0.6-0.1c-1-0.3-1.5-1.4-1.1-2.4c0.7-1.9,1.2-3.8,1.7-5.8
		c0.3-1,1.3-1.6,2.3-1.3c1,0.3,1.6,1.3,1.3,2.3c-0.5,2-1.1,4.1-1.8,6.1C156.5,110.7,155.8,111.2,155,111.2z M11.4,96.2
		c-0.9,0-1.7-0.7-1.8-1.6c-0.3-2.1-0.4-4.2-0.5-6.3c0-1,0.8-1.9,1.8-1.9c1,0,1.9,0.8,1.9,1.8c0.1,2,0.3,4,0.5,6
		c0.1,1-0.6,1.9-1.6,2.1C11.6,96.2,11.5,96.2,11.4,96.2z M158.9,93.1c-0.1,0-0.1,0-0.2,0c-1-0.1-1.8-1-1.7-2c0.2-2,0.2-4,0.2-6v-0.2
		c0-1,0.8-1.9,1.9-1.9s1.9,0.8,1.9,1.9V85c0,2.1-0.1,4.3-0.3,6.4C160.6,92.3,159.8,93.1,158.9,93.1z M11.4,77.6c-0.1,0-0.2,0-0.2,0
		c-1-0.1-1.7-1.1-1.6-2.1c0.3-2.1,0.6-4.2,1-6.3c0.2-1,1.2-1.6,2.2-1.4c1,0.2,1.6,1.2,1.4,2.2c-0.4,2-0.7,4-1,6
		C13.2,77,12.4,77.6,11.4,77.6z M158.1,74.3c-0.9,0-1.7-0.6-1.8-1.5c-0.3-2-0.8-4-1.3-5.9c-0.3-1,0.3-2,1.3-2.3c1-0.3,2,0.3,2.3,1.3
		c0.5,2,1,4.1,1.3,6.2c0.2,1-0.5,2-1.5,2.1C158.3,74.3,158.2,74.3,158.1,74.3z M16,59.6c-0.2,0-0.5,0-0.7-0.1c-1-0.4-1.4-1.5-1-2.4
		c0.8-2,1.6-3.9,2.6-5.8c0.5-0.9,1.6-1.3,2.5-0.8c0.9,0.5,1.3,1.6,0.8,2.5c-0.9,1.8-1.7,3.7-2.5,5.5C17.5,59.2,16.8,59.6,16,59.6z
		 M152.7,56.6c-0.7,0-1.4-0.4-1.7-1.1c-0.8-1.8-1.7-3.7-2.7-5.4c-0.5-0.9-0.2-2,0.7-2.5c0.9-0.5,2-0.2,2.5,0.7c1,1.8,2,3.8,2.8,5.7
		c0.4,0.9,0,2-0.9,2.4C153.2,56.5,152.9,56.6,152.7,56.6z M25,43.3c-0.4,0-0.8-0.1-1.1-0.4c-0.8-0.6-1-1.8-0.4-2.6
		c1.2-1.7,2.6-3.4,4-5c0.7-0.8,1.8-0.9,2.6-0.2s0.9,1.8,0.2,2.6c-1.3,1.5-2.6,3.1-3.8,4.7C26.1,43.1,25.5,43.3,25,43.3z M143,40.7
		c-0.5,0-1.1-0.2-1.5-0.7c-1.3-1.6-2.6-3.1-4-4.6c-0.7-0.7-0.7-1.9,0.1-2.6c0.7-0.7,1.9-0.7,2.6,0.1c1.5,1.5,2.9,3.2,4.2,4.8
		c0.6,0.8,0.5,2-0.3,2.6C143.8,40.6,143.4,40.7,143,40.7z M37.7,29.8c-0.5,0-1.1-0.2-1.4-0.7c-0.7-0.8-0.5-2,0.2-2.6
		c1.6-1.3,3.3-2.6,5.1-3.9c0.8-0.6,2-0.4,2.6,0.5c0.6,0.8,0.4,2-0.5,2.6c-1.6,1.2-3.3,2.4-4.8,3.7C38.5,29.6,38.1,29.8,37.7,29.8z
		 M129.7,27.7c-0.4,0-0.8-0.1-1.1-0.4c-1.6-1.2-3.3-2.4-5-3.5c-0.9-0.5-1.1-1.7-0.6-2.6c0.5-0.9,1.7-1.1,2.6-0.6
		c1.8,1.1,3.5,2.4,5.2,3.6c0.8,0.6,1,1.8,0.4,2.6C130.8,27.5,130.3,27.7,129.7,27.7z M53.3,19.8c-0.7,0-1.4-0.4-1.7-1.1
		c-0.4-0.9,0-2,0.9-2.5c1.9-0.9,3.9-1.7,5.9-2.5c1-0.4,2,0.1,2.4,1.1c0.4,1-0.1,2-1.1,2.4c-1.9,0.7-3.8,1.5-5.6,2.4
		C53.9,19.7,53.6,19.8,53.3,19.8z M113.6,18.4c-0.2,0-0.5,0-0.7-0.1c-1.9-0.8-3.8-1.5-5.7-2.1c-1-0.3-1.5-1.4-1.2-2.3
		c0.3-1,1.4-1.5,2.3-1.2c2,0.6,4,1.4,6,2.2c0.9,0.4,1.4,1.5,1,2.4C115,18,114.3,18.4,113.6,18.4z M71,14c-0.9,0-1.6-0.6-1.8-1.5
		c-0.2-1,0.5-2,1.5-2.2c2.1-0.4,4.2-0.7,6.3-0.9c1-0.1,1.9,0.6,2,1.6s-0.6,1.9-1.6,2c-2,0.2-4,0.5-6,0.9C71.2,14,71.1,14,71,14z
		 M95.7,13.5c-0.1,0-0.2,0-0.3,0c-2-0.3-4-0.5-6-0.6c-1-0.1-1.8-0.9-1.7-2c0.1-1,1-1.8,2-1.7c2.1,0.1,4.2,0.3,6.3,0.6
		c1,0.1,1.7,1.1,1.6,2.1C97.4,12.8,96.6,13.5,95.7,13.5z"/>
</g>
</svg>
