<?xml version="1.0" encoding="utf-8"?>
<!-- Generator: Adobe Illustrator 18.0.0, SVG Export Plug-In . SVG Version: 6.00 Build 0)  -->
<!DOCTYPE svg PUBLIC "-//W3C//DTD SVG 1.1//EN" "http://www.w3.org/Graphics/SVG/1.1/DTD/svg11.dtd">
<svg version="1.1" id="Layer_1" xmlns="http://www.w3.org/2000/svg" xmlns:xlink="http://www.w3.org/1999/xlink" x="0px" y="0px"
	 viewBox="0 0 120 190" enable-background="new 0 0 120 190" xml:space="preserve">
<g>
	<path fill="none" stroke="#106580" stroke-width="3.438" stroke-linejoin="round" stroke-miterlimit="10" d="M28.8,36.1"/>
	<polygon fill="#28BFAD" points="9.1,4.3 46.2,89.7 30.9,106.1 103.8,185.7 66.7,100.3 82,83.9 	"/>
	<polygon fill="#106580" points="68.1,157 6.1,157 6.1,34.1 18.2,34.1 18.2,38.1 10.1,38.1 10.1,153 68.1,153 	"/>
	<polygon fill="#106580" points="113.9,157 98.6,157 98.6,153 109.9,153 109.9,38.1 45.3,38.1 45.3,34.1 113.9,34.1 	"/>
	<g>
		<g>
			<path fill="#106580" d="M26.7,61.6c0-2.3,1.8-4.1,4.1-4.1h13c4.8,0,8.5,1.3,10.9,3.8c2.1,2.1,3.2,5,3.2,8.6v0.1
				c0,5.9-3,9.5-7.5,11.4l5.7,7c0.8,1,1.3,1.9,1.3,3.2c0,2.3-1.9,3.8-3.9,3.8c-1.9,0-3.1-0.9-4.1-2.1l-8-10.2H35v8.2
				c0,2.3-1.8,4.1-4.1,4.1s-4.1-1.8-4.1-4.1V61.6z M43.4,75.7c4,0,6.3-2.1,6.3-5.3v-0.1c0-3.5-2.5-5.4-6.5-5.4H35v10.8H43.4z"/>
			<path fill="#106580" d="M65.5,61.3c0-2.3,1.8-4.1,4.1-4.1c2.3,0,4.1,1.8,4.1,4.1v11.1H89V61.3c0-2.3,1.8-4.1,4.1-4.1
				s4.1,1.8,4.1,4.1v29.9c0,2.3-1.8,4.1-4.1,4.1S89,93.5,89,91.2V79.9H73.8v11.3c0,2.3-1.8,4.1-4.1,4.1c-2.3,0-4.1-1.8-4.1-4.1V61.3
				z"/>
			<path fill="#106580" d="M25.1,123.3v-0.1c0-10.7,8-19.4,19.6-19.4c5.6,0,9.4,1.5,12.6,3.8c0.9,0.6,1.6,1.8,1.6,3.3
				c0,2.3-1.8,4-4.1,4c-1.1,0-1.9-0.4-2.5-0.8c-2.3-1.7-4.7-2.7-7.7-2.7c-6.3,0-10.9,5.3-10.9,11.7v0.1c0,6.4,4.5,11.8,10.9,11.8
				c3.5,0,5.8-1.1,8.2-3c0.6-0.5,1.5-0.9,2.5-0.9c2.1,0,3.9,1.7,3.9,3.8c0,1.3-0.6,2.3-1.4,3c-3.4,3-7.3,4.7-13.4,4.7
				C33.3,142.6,25.1,134.1,25.1,123.3z"/>
			<path fill="#106580" d="M66.3,108.5c0-2.3,1.8-4.1,4.1-4.1h11.2c9,0,14.4,5.3,14.4,13v0.1c0,8.7-6.8,13.2-15.2,13.2h-6.3v7.5
				c0,2.3-1.8,4.1-4.1,4.1c-2.3,0-4.1-1.8-4.1-4.1V108.5z M81.1,123.4c4.1,0,6.5-2.5,6.5-5.7v-0.1c0-3.7-2.6-5.7-6.7-5.7h-6.4v11.5
				H81.1z"/>
		</g>
		<g>
			<g>
				<path fill="#FFFFFF" d="M22.7,57.6c0-2.3,1.8-4.1,4.1-4.1h13c4.8,0,8.5,1.3,10.9,3.8c2.1,2.1,3.2,5,3.2,8.6v0.1
					c0,5.9-3,9.5-7.5,11.4l5.7,7c0.8,1,1.3,1.9,1.3,3.2c0,2.3-1.9,3.8-3.9,3.8c-1.9,0-3.1-0.9-4.1-2.1l-8-10.2H31v8.2
					c0,2.3-1.8,4.1-4.1,4.1s-4.1-1.8-4.1-4.1V57.6z M39.4,71.7c4,0,6.3-2.1,6.3-5.3v-0.1c0-3.5-2.5-5.4-6.5-5.4H31v10.8H39.4z"/>
				<path fill="#106580" d="M49.7,92.3c-1.9,0-3.5-0.8-4.9-2.5L37.1,80H32v7.2c0,2.9-2.3,5.1-5.1,5.1c-2.9,0-5.1-2.3-5.1-5.1V57.6
					c0-2.9,2.3-5.1,5.1-5.1h13c4.9,0,9,1.4,11.7,4.1c2.3,2.3,3.5,5.5,3.5,9.3v0.1c0,5.4-2.4,9.5-6.9,11.8l4.9,6
					c0.8,1,1.6,2.1,1.6,3.8C54.6,90.5,52.1,92.3,49.7,92.3z M30,78h8.1l8.3,10.6c1,1.2,2,1.8,3.3,1.8c1.4,0,2.9-1.1,2.9-2.8
					c0-1-0.4-1.6-1.1-2.5l-6.6-8l1.3-0.5c4.6-1.9,6.9-5.4,6.9-10.5v-0.1c0-3.2-1-6-2.9-7.9c-2.3-2.3-5.8-3.5-10.2-3.5h-13
					c-1.8,0-3.1,1.4-3.1,3.1v29.6c0,1.8,1.4,3.1,3.1,3.1s3.1-1.4,3.1-3.1V78z M39.4,72.7H30V59.9h9.2c4.7,0,7.5,2.4,7.5,6.4v0.1
					C46.7,70.2,43.8,72.7,39.4,72.7z M32,70.7h7.4c3.3,0,5.3-1.6,5.3-4.3v-0.1c0-3.6-3-4.4-5.5-4.4H32V70.7z"/>
			</g>
			<g>
				<path fill="#FFFFFF" d="M61.5,57.3c0-2.3,1.8-4.1,4.1-4.1c2.3,0,4.1,1.8,4.1,4.1v11.1H85V57.3c0-2.3,1.8-4.1,4.1-4.1
					s4.1,1.8,4.1,4.1v29.9c0,2.3-1.8,4.1-4.1,4.1S85,89.5,85,87.2V75.9H69.8v11.3c0,2.3-1.8,4.1-4.1,4.1c-2.3,0-4.1-1.8-4.1-4.1
					V57.3z"/>
				<path fill="#106580" d="M89.1,92.3c-2.9,0-5.1-2.3-5.1-5.1V76.9H70.8v10.3c0,2.9-2.3,5.1-5.1,5.1c-2.9,0-5.1-2.3-5.1-5.1V57.3
					c0-2.9,2.3-5.1,5.1-5.1c2.9,0,5.1,2.3,5.1,5.1v10.1H84V57.3c0-2.9,2.3-5.1,5.1-5.1s5.1,2.3,5.1,5.1v29.9
					C94.3,90.1,92,92.3,89.1,92.3z M68.8,74.9H86v12.3c0,1.8,1.4,3.1,3.1,3.1s3.1-1.4,3.1-3.1V57.3c0-1.8-1.4-3.1-3.1-3.1
					S86,55.5,86,57.3v12.1H68.8V57.3c0-1.8-1.4-3.1-3.1-3.1c-1.8,0-3.1,1.4-3.1,3.1v29.9c0,1.8,1.4,3.1,3.1,3.1
					c1.8,0,3.1-1.4,3.1-3.1V74.9z"/>
			</g>
			<g>
				<path fill="#FFFFFF" d="M21.1,119.3v-0.1c0-10.7,8-19.4,19.6-19.4c5.6,0,9.4,1.5,12.6,3.8c0.9,0.6,1.6,1.8,1.6,3.3
					c0,2.3-1.8,4-4.1,4c-1.1,0-1.9-0.4-2.5-0.8c-2.3-1.7-4.7-2.7-7.7-2.7c-6.3,0-10.9,5.3-10.9,11.7v0.1c0,6.4,4.5,11.8,10.9,11.8
					c3.5,0,5.8-1.1,8.2-3c0.6-0.5,1.5-0.9,2.5-0.9c2.1,0,3.9,1.7,3.9,3.8c0,1.3-0.6,2.3-1.4,3c-3.4,3-7.3,4.7-13.4,4.7
					C29.3,138.6,21.1,130.1,21.1,119.3z"/>
				<path fill="#106580" d="M40.3,139.6c-11.6,0-20.3-8.7-20.3-20.3v-0.1c0-11.6,8.8-20.4,20.6-20.4c5.3,0,9.5,1.3,13.2,4
					c1.3,0.9,2,2.5,2,4.1c0,2.8-2.3,5-5.1,5c-1.3,0-2.2-0.5-3-1c-2.3-1.7-4.6-2.5-7.1-2.5c-5.6,0-9.9,4.6-9.9,10.7v0.1
					c0,6.2,4.3,10.8,9.9,10.8c3.4,0,5.5-1.1,7.5-2.7c0.9-0.7,2-1.1,3.1-1.1c2.7,0,4.9,2.2,4.9,4.8c0,1.4-0.6,2.8-1.7,3.7
					C50.4,138.1,46.1,139.6,40.3,139.6z M40.6,100.8c-10.6,0-18.6,7.9-18.6,18.4v0.1c0,10.4,7.9,18.3,18.3,18.3
					c5.2,0,9.2-1.4,12.7-4.5c0.4-0.3,1.1-1.1,1.1-2.2c0-1.5-1.3-2.8-2.9-2.8c-0.7,0-1.3,0.2-1.8,0.7c-2.8,2.3-5.4,3.2-8.8,3.2
					c-6.8,0-11.9-5.5-11.9-12.8v-0.1c0-7.1,5.2-12.7,11.9-12.7c3,0,5.6,0.9,8.3,2.9c0.5,0.3,1,0.6,1.9,0.6c1.7,0,3.1-1.3,3.1-3
					c0-1.2-0.6-2-1.2-2.5C49.3,101.9,45.5,100.8,40.6,100.8z"/>
			</g>
			<g>
				<path fill="#FFFFFF" d="M62.3,104.5c0-2.3,1.8-4.1,4.1-4.1h11.2c9,0,14.4,5.3,14.4,13v0.1c0,8.7-6.8,13.2-15.2,13.2h-6.3v7.5
					c0,2.3-1.8,4.1-4.1,4.1c-2.3,0-4.1-1.8-4.1-4.1V104.5z M77.1,119.4c4.1,0,6.5-2.5,6.5-5.7v-0.1c0-3.7-2.6-5.7-6.7-5.7h-6.4v11.5
					H77.1z"/>
				<path fill="#106580" d="M66.4,139.3c-2.9,0-5.1-2.3-5.1-5.1v-29.6c0-2.9,2.3-5.1,5.1-5.1h11.2c9.3,0,15.4,5.5,15.4,14v0.1
					c0,8.6-6.4,14.2-16.2,14.2h-5.3v6.5C71.6,137,69.3,139.3,66.4,139.3z M66.4,101.4c-1.8,0-3.1,1.4-3.1,3.1v29.6
					c0,1.8,1.4,3.1,3.1,3.1s3.1-1.4,3.1-3.1v-8.5h7.3c8.6,0,14.2-4.8,14.2-12.2v-0.1c0-7.3-5.3-12-13.4-12H66.4z M77.1,120.4h-7.5
					v-13.5H77c4.8,0,7.7,2.5,7.7,6.7v0.1C84.7,117.6,81.6,120.4,77.1,120.4z M71.6,118.4h5.5c3.4,0,5.5-1.8,5.5-4.7v-0.1
					c0-4.1-3.6-4.7-5.7-4.7h-5.4V118.4z"/>
			</g>
		</g>
	</g>
</g>
</svg>
